<svg xmlns="http://www.w3.org/2000/svg" viewBox="0 0 420 220"><defs><linearGradient id="s" x1="0" y1="0" x2="1" y2="1"><stop stop-color="#95f5ff"/><stop offset=".35" stop-color="#2c97db"/><stop offset="1" stop-color="#172b66"/></linearGradient><filter id="g"><feGaussianBlur stdDeviation="5" result="b"/><feMerge><feMergeNode in="b"/><feMergeNode in="SourceGraphic"/></feMerge></filter></defs><g opacity=".35" fill="#95f5ff"><circle cx="40" cy="40" r="2"/><circle cx="110" cy="24" r="1.5"/><circle cx="300" cy="35" r="2"/><circle cx="384" cy="70" r="1.2"/><circle cx="250" cy="160" r="1.5"/></g><g filter="url(#g)"><path d="M42 132 161 71l87 10 88 52-101 11-79-14z" fill="url(#s)" stroke="#76eaff" stroke-width="3"/><path d="m135 91 25-48 31 38M236 87l29-50 35 66" fill="#102b50" stroke="#4bcfff" stroke-width="3"/><path d="m76 129-48 22 65-2M312 131l78 19-60 9" fill="#15335e" stroke="#42bce8" stroke-width="3"/><path d="M147 130 97 180l84-33M239 143l61 39-25-46" fill="#10284d" stroke="#3db8e8" stroke-width="3"/><path d="M51 134 10 130M57 145 19 153M337 137l70-6M334 146l61 16" stroke="#69e9ff" stroke-width="5" opacity=".55"/><circle cx="207" cy="108" r="14" fill="#dfffff"/><circle cx="207" cy="108" r="27" fill="none" stroke="#56dfff" stroke-width="4"/></g><g fill="#65e9ff"><rect x="134" y="109" width="25" height="4" rx="2"/><rect x="251" y="112" width="31" height="4" rx="2"/></g></svg>
